<?xml version="1.0" standalone="no"?>
<!DOCTYPE svg PUBLIC "-//W3C//DTD SVG 20010904//EN"
 "http://www.w3.org/TR/2001/REC-SVG-20010904/DTD/svg10.dtd">
<svg version="1.0" xmlns="http://www.w3.org/2000/svg"
 width="920.000000pt" height="800.000000pt" viewBox="0 0 920.000000 800.000000"
 preserveAspectRatio="xMidYMid meet">
<metadata>
Created by potrace 1.16, written by Peter Selinger 2001-2019
</metadata>
<g transform="translate(0.000000,800.000000) scale(0.100000,-0.100000)"
fill="#000000" stroke="none">
<path d="M4444 7963 c-289 -11 -640 -69 -949 -158 -644 -186 -1270 -561 -1718
-1029 -605 -631 -992 -1409 -1107 -2226 -35 -250 -39 -317 -35 -615 3 -309 17
-452 71 -723 122 -618 399 -1212 800 -1712 139 -174 422 -456 594 -594 499
-398 1054 -662 1675 -796 308 -66 694 -92 1080 -71 296 15 647 84 978 191
1003 325 1835 1046 2315 2005 277 552 414 1133 416 1755 1 259 -2 321 -30 535
-148 1153 -813 2191 -1814 2831 -471 301 -1047 508 -1610 579 -145 18 -460 37
-541 33 -31 -2 -87 -4 -125 -5z m459 -416 c29 0 42 -2 30 -4 -22 -4 -33 -23
-13 -23 6 0 10 -18 10 -40 0 -22 -4 -40 -10 -40 -5 0 -10 -9 -10 -20 0 -23
-105 -642 -240 -1405 -54 -308 -106 -607 -116 -664 -10 -57 -20 -98 -22 -90
-3 8 -56 144 -119 302 l-114 289 1 776 c1 428 5 807 9 845 7 64 6 67 -14 67
-29 0 -36 -9 -25 -31 8 -14 21 -1625 14 -1616 -2 3 -281 708 -422 1067 -74
190 -135 354 -134 365 1 39 -29 105 -47 105 -31 0 -30 -10 6 -78 19 -37 77
-175 128 -307 51 -132 150 -384 220 -560 69 -176 153 -388 186 -471 l59 -150
-2 -329 -3 -329 -69 114 c-621 1030 -1047 1740 -1077 1799 -21 41 -36 78 -33
83 7 12 -7 9 -35 -6 -19 -10 -20 -14 -8 -19 9 -3 24 -21 33 -39 9 -18 23 -37
30 -43 7 -5 272 -441 588 -968 l576 -958 0 -319 c0 -176 -3 -320 -8 -320 -4 0
-130 68 -281 150 -150 83 -276 150 -280 150 -9 0 -1121 1944 -1121 1960 0 12
-30 62 -44 71 -5 4 -5 12 -2 18 12 19 -10 12 -29 -9 -10 -11 -13 -20 -7 -20 6
0 13 -9 17 -19 3 -10 17 -30 30 -43 27 -27 31 -35 654 -1121 248 -434 451
-792 451 -797 0 -5 -51 19 -112 54 -62 34 -181 100 -265 146 l-152 83 -483
570 c-266 313 -497 588 -515 611 -17 22 -43 55 -57 72 -14 18 -26 37 -26 44 0
9 -7 7 -20 -5 -20 -18 -20 -19 38 -74 57 -54 273 -304 751 -871 124 -146 233
-275 244 -287 11 -13 16 -23 11 -23 -14 0 -1311 713 -1336 734 -12 10 -37 28
-56 39 -28 17 -35 18 -43 6 -5 -8 -9 -16 -9 -19 0 -7 79 -47 105 -53 11 -3
329 -175 707 -383 l688 -379 190 -224 c104 -124 190 -228 190 -232 0 -5 -26 1
-57 12 -32 11 -398 132 -813 269 -415 137 -849 280 -965 318 -115 38 -237 83
-270 100 -55 28 -61 29 -72 15 -7 -9 -13 -20 -13 -23 0 -4 6 -7 13 -7 33 -1
186 -51 1162 -373 l1050 -346 223 -257 c136 -158 218 -259 210 -262 -7 -3
-160 -33 -340 -68 -292 -56 -331 -62 -360 -50 -33 12 -340 126 -1403 518 -308
113 -580 214 -605 223 -25 9 -49 16 -53 14 -5 -1 -6 2 -2 8 3 5 -6 15 -22 20
-15 6 -36 15 -45 20 -11 6 -18 6 -18 1 0 -5 -2 -16 -5 -23 -6 -15 47 -38 98
-44 24 -3 420 -148 1670 -611 202 -75 367 -139 367 -142 0 -4 -115 -29 -255
-57 l-255 -51 -323 54 c-177 29 -533 87 -792 129 -259 41 -479 79 -490 83 -11
5 -39 13 -62 18 -41 10 -43 9 -43 -12 0 -20 5 -22 56 -24 48 -1 580 -84 1349
-212 217 -35 238 -40 232 -45 -3 -3 -150 -34 -328 -69 -178 -35 -511 -100
-739 -145 -228 -45 -444 -83 -479 -85 -66 -2 -82 -13 -74 -46 5 -16 7 -16 20
-4 8 8 27 15 42 15 15 0 31 4 37 10 11 11 -34 2 879 179 l720 140 263 -43
c145 -24 266 -47 269 -49 6 -7 19 -2 -472 -199 -431 -173 -868 -349 -1250
-503 -219 -89 -265 -105 -348 -122 -16 -3 -27 -12 -27 -22 0 -18 20 -53 20
-35 0 21 136 77 1618 671 l513 206 365 -58 c200 -31 370 -54 377 -52 7 3 5 6
-5 6 -18 1 -23 12 -12 24 9 9 34 -4 34 -17 0 -11 -52 -111 -189 -360 l-66
-119 -123 -44 c-68 -24 -122 -39 -120 -33 1 5 98 125 213 266 116 142 212 262
214 268 10 27 -39 -30 -245 -283 -211 -260 -221 -271 -274 -291 -50 -20 -558
-197 -1610 -562 -206 -71 -393 -138 -415 -147 -33 -16 -41 -16 -53 -5 -25 25
-31 10 -9 -20 13 -18 17 -17 88 17 41 19 454 166 919 327 465 160 900 311 968
334 67 24 122 39 122 34 0 -5 -63 -87 -141 -183 l-141 -174 -181 -107 c-100
-59 -410 -244 -689 -411 -279 -167 -512 -303 -518 -303 -12 0 -62 -30 -71 -44
-4 -5 -12 -5 -18 -2 -17 11 -13 -10 5 -25 9 -8 18 -9 22 -3 15 21 121 89 392
251 613 366 1002 594 1006 590 7 -6 -931 -1166 -988 -1221 -46 -46 -49 -51
-32 -63 15 -11 19 -10 28 6 6 10 23 37 39 60 23 35 479 602 900 1119 l116 144
227 134 c124 74 229 133 231 130 7 -6 -70 -153 -569 -1090 -226 -424 -422
-784 -435 -799 -21 -26 -27 -41 -24 -59 0 -5 -6 -8 -15 -8 -19 0 -10 -16 18
-31 17 -9 20 -9 15 4 -3 8 3 29 14 46 10 17 19 36 19 42 0 6 79 160 177 343
97 182 324 610 505 951 181 341 335 625 341 632 16 16 548 335 552 331 2 -2 6
-172 10 -378 l7 -375 -529 -880 c-290 -484 -540 -896 -555 -916 -16 -20 -28
-43 -28 -52 0 -11 -5 -14 -17 -10 -23 8 -15 -1 14 -16 19 -10 23 -7 38 22 9
17 21 45 26 61 5 16 242 417 526 891 385 641 520 857 525 844 4 -10 8 -117 9
-238 l1 -219 -251 -714 c-250 -710 -283 -796 -305 -810 -8 -6 -7 -11 4 -18 22
-14 50 -12 44 3 -6 17 15 95 64 237 173 498 436 1237 443 1245 5 5 9 -42 9
-115 0 -69 7 -400 14 -737 8 -337 13 -620 11 -630 -2 -10 -6 -35 -9 -56 -5
-36 -4 -37 26 -37 26 0 29 2 18 15 -14 17 -24 268 -40 1076 l-11 545 92 263
c51 144 95 258 99 254 4 -4 30 -120 58 -258 28 -137 88 -425 132 -640 176
-848 229 -1116 232 -1174 3 -59 4 -61 31 -61 15 0 27 5 27 10 0 6 -4 10 -9 10
-5 0 -12 16 -16 36 -3 20 -10 44 -15 53 -5 9 -46 196 -90 416 -45 220 -140
683 -212 1028 l-130 628 97 285 c54 156 101 287 106 289 4 3 55 -48 112 -112
300 -338 378 -430 382 -448 5 -22 97 -589 225 -1400 44 -280 83 -518 86 -527
3 -10 5 -40 6 -68 0 -27 4 -53 10 -56 5 -3 1 -12 -9 -20 -17 -12 -16 -13 9
-14 38 0 41 11 19 72 -11 29 -47 229 -81 443 -64 412 -147 934 -206 1299 -19
120 -34 225 -32 234 2 10 63 -52 163 -166 l160 -183 243 -677 c230 -641 261
-736 265 -789 1 -14 9 -23 18 -23 18 0 44 26 32 32 -4 1 -19 23 -32 48 -25 49
-493 1351 -487 1357 6 7 902 -1016 939 -1073 48 -73 53 -77 76 -64 12 6 21 15
21 21 0 6 -4 8 -8 5 -15 -9 -93 72 -313 325 -118 135 -333 381 -479 548 l-264
302 -102 282 c-56 155 -100 284 -98 286 2 2 25 -14 51 -35 53 -44 643 -522
1183 -958 190 -154 367 -301 393 -328 27 -26 53 -46 58 -43 5 4 6 -1 2 -11 -5
-14 -3 -15 15 -5 12 7 22 19 22 27 0 8 -5 12 -10 9 -10 -6 -19 -1 -120 78 -84
66 -997 803 -1323 1068 l-289 234 -98 270 c-55 148 -97 271 -96 273 6 5 659
-88 681 -98 11 -4 130 -104 266 -222 324 -281 387 -336 834 -722 431 -373 513
-448 506 -467 -2 -9 4 -7 18 5 11 11 21 26 21 35 0 13 -2 13 -9 3 -7 -11 -9
-11 -14 2 -3 8 -26 28 -51 43 -35 22 -602 510 -1443 1239 -45 40 -80 74 -78
76 2 2 118 -13 257 -34 139 -20 263 -37 276 -38 12 0 291 -158 620 -352 602
-354 706 -419 716 -441 3 -8 10 -6 20 7 9 11 16 23 16 26 0 3 -27 16 -60 28
-48 17 -1134 647 -1205 700 -18 13 -14 14 40 8 182 -20 1300 -190 1353 -207
70 -21 82 -19 82 14 0 19 -5 22 -43 22 -23 -1 -47 -3 -52 -6 -6 -4 -111 9
-235 28 -124 19 -452 67 -728 108 -335 49 -509 78 -520 88 -10 8 -82 53 -162
99 -323 189 -380 223 -380 229 0 3 224 9 498 12 1165 16 1610 18 1670 10 61
-10 63 -9 68 14 4 13 5 25 3 27 -2 2 -33 0 -69 -4 -36 -4 -238 -11 -450 -14
-371 -6 -544 -9 -1376 -22 l-382 -6 -218 128 c-121 70 -227 133 -237 139 -16
11 18 35 268 190 l286 178 1012 -7 c1022 -6 1141 -9 1165 -29 11 -9 13 -4 10
24 -3 33 -4 34 -43 31 -22 -2 -45 -8 -52 -14 -17 -13 -2036 2 -2050 16 -2 2
118 77 266 169 l269 165 164 27 c90 14 406 66 702 116 297 49 541 87 543 85 2
-2 20 0 41 5 22 5 41 4 48 -2 16 -13 23 1 13 28 -7 20 -9 21 -51 6 -49 -17
-237 -50 -898 -158 -256 -41 -476 -78 -490 -81 -54 -12 -64 -18 818 525 189
116 348 211 353 211 6 0 24 8 42 17 18 9 35 16 40 15 10 -3 9 16 -3 38 -11 21
-9 23 -74 -36 -14 -12 -126 -85 -248 -160 -123 -75 -392 -241 -598 -369 -435
-269 -413 -256 -459 -262 -20 -3 -174 -28 -343 -57 -170 -28 -308 -49 -308
-45 0 10 1609 1381 1664 1418 69 46 69 46 54 70 -16 26 -28 27 -23 1 2 -11 1
-19 -3 -17 -10 3 -62 -38 -63 -49 0 -5 -122 -112 -271 -239 -335 -284 -1320
-1126 -1367 -1168 -33 -30 -45 -33 -313 -77 -240 -40 -278 -45 -277 -31 0 9
44 147 97 306 l97 290 191 160 c104 88 379 318 610 512 230 193 514 431 629
528 116 97 217 179 225 182 8 4 31 19 51 34 20 16 39 26 43 22 3 -3 6 -2 6 4
0 5 -9 18 -19 27 -22 20 -14 25 -98 -71 -10 -11 -115 -102 -233 -200 -118 -99
-291 -244 -385 -322 -811 -679 -996 -833 -1000 -829 -3 2 41 141 97 309 l101
304 321 375 c176 206 385 452 465 545 164 193 252 286 263 279 5 -3 8 -1 8 5
0 10 -40 36 -44 29 -47 -77 -43 -73 -712 -858 -147 -173 -269 -317 -271 -319
-18 -24 20 97 212 674 122 369 237 698 254 732 18 35 30 67 27 72 -8 12 -46
21 -46 10 0 -5 4 -9 10 -9 5 0 0 -15 -11 -34 -11 -19 -19 -41 -18 -48 2 -7
-104 -336 -235 -732 l-238 -719 -202 -236 c-110 -130 -215 -253 -232 -274 -27
-33 -31 -35 -28 -15 165 1004 358 2147 370 2188 9 30 20 65 25 78 6 15 5 22
-3 22 -6 0 -9 3 -5 6 3 3 11 3 18 -2 7 -4 77 -29 156 -55 79 -27 196 -70 261
-97 64 -27 128 -52 142 -55 14 -4 34 -14 45 -24 11 -10 54 -36 95 -57 88 -47
231 -132 312 -187 31 -22 63 -39 71 -39 7 0 24 -12 38 -26 13 -15 66 -60 118
-102 51 -41 147 -124 212 -184 66 -59 124 -108 128 -108 5 0 23 -21 40 -47 17
-27 63 -84 102 -128 39 -44 109 -130 155 -192 46 -61 88 -115 94 -118 6 -4 21
-28 34 -53 13 -26 49 -90 80 -142 31 -52 85 -151 119 -219 34 -69 70 -133 79
-142 10 -10 20 -31 23 -46 9 -43 20 -78 68 -214 25 -69 56 -164 68 -210 12
-46 29 -91 36 -100 8 -10 14 -32 15 -50 0 -19 9 -79 20 -134 51 -258 69 -431
67 -654 0 -118 -4 -248 -8 -290 -5 -46 -4 -85 2 -98 7 -17 6 -33 -6 -60 -9
-21 -23 -87 -32 -148 -9 -60 -30 -170 -46 -243 -17 -73 -30 -143 -29 -155 4
-40 0 -55 -16 -72 -9 -9 -36 -73 -60 -142 -24 -68 -64 -172 -89 -230 -25 -58
-45 -116 -45 -130 0 -13 -10 -34 -22 -47 -13 -12 -43 -60 -67 -107 -49 -93
-137 -240 -184 -308 -17 -25 -30 -52 -30 -60 0 -22 -35 -71 -52 -71 -7 0 -21
-12 -30 -27 -26 -41 -138 -175 -227 -274 -43 -48 -78 -90 -78 -95 0 -11 -42
-54 -53 -54 -5 0 -57 -43 -115 -97 -59 -53 -147 -127 -197 -166 -49 -38 -94
-76 -99 -86 -13 -23 -37 -40 -66 -47 -14 -4 -50 -24 -81 -45 -66 -44 -290
-170 -336 -188 -18 -8 -33 -17 -33 -22 0 -11 -39 -31 -65 -35 -11 -2 -74 -25
-140 -52 -66 -27 -165 -64 -220 -83 -55 -18 -111 -41 -124 -51 -15 -11 -39
-18 -60 -17 -20 1 -72 -8 -116 -19 -102 -27 -263 -58 -340 -67 -33 -4 -65 -12
-71 -17 -11 -8 -44 -11 -84 -8 -8 1 -85 -1 -170 -5 -132 -6 -293 -12 -404 -15
-16 0 -34 4 -40 10 -5 5 -30 10 -56 10 -50 0 -290 33 -360 49 -25 6 -65 11
-90 11 -25 0 -54 6 -65 13 -11 8 -51 22 -90 31 -38 10 -151 44 -250 76 -99 33
-193 62 -208 65 -15 3 -35 14 -45 25 -9 11 -20 20 -25 20 -14 0 -277 134 -360
183 -43 26 -85 47 -94 47 -8 0 -28 13 -44 30 -17 16 -69 57 -117 89 -48 33
-144 106 -214 163 -70 57 -138 111 -152 121 -14 10 -26 21 -26 25 0 4 -44 52
-97 107 -52 55 -129 139 -169 188 -40 48 -89 103 -109 122 -19 20 -35 40 -35
45 0 5 -38 64 -83 132 -46 68 -110 168 -142 223 -32 55 -69 113 -82 128 -12
16 -23 37 -23 48 0 11 -9 36 -19 57 -49 95 -118 270 -190 477 -44 126 -140
573 -146 680 -2 28 -6 160 -10 295 -8 279 7 494 52 730 14 74 25 143 25 153
-1 10 4 31 9 45 6 15 26 81 45 147 64 224 144 427 250 635 66 131 203 365 242
416 13 16 54 71 93 123 149 198 330 390 534 567 94 81 261 214 269 214 4 0 39
22 79 49 40 27 97 61 127 76 30 15 64 35 75 45 32 29 310 165 445 219 69 27
175 65 235 84 61 20 126 43 146 51 20 8 39 13 41 11 3 -3 63 8 134 24 71 17
179 37 239 45 61 8 128 18 150 22 22 3 103 8 180 11 77 2 142 7 145 10 3 3 72
2 153 -2 82 -4 172 -7 200 -8z m167 -22 c81 -7 260 -40 364 -66 43 -11 84 -18
91 -15 6 2 18 0 26 -5 11 -7 10 -9 -6 -9 -15 0 -17 -2 -6 -9 9 -6 11 -18 7
-37 -4 -16 -9 -47 -11 -69 -3 -22 -39 -238 -80 -480 -146 -857 -285 -1710
-281 -1721 3 -7 -4 -20 -15 -29 -13 -12 -17 -25 -13 -42 4 -13 -4 -89 -17
-169 l-23 -144 -133 -112 c-73 -61 -133 -115 -133 -120 0 -10 24 8 165 126 49
41 91 74 92 72 4 -4 -54 -336 -60 -342 -3 -4 -35 -12 -71 -18 l-64 -13 -56
141 c-30 78 -109 278 -175 445 -67 168 -121 314 -121 326 0 11 33 210 74 440
102 576 196 1117 251 1445 25 151 52 290 60 308 8 18 15 44 15 57 0 13 5 27
10 30 6 4 8 11 4 16 -3 6 4 8 18 5 12 -3 52 -8 88 -11z m-717 -1845 c25 -63
75 -191 112 -284 l67 -169 -27 -151 c-67 -386 -107 -602 -113 -608 -4 -4 -29
6 -55 23 l-48 30 7 297 c3 163 8 299 9 300 2 2 37 -54 79 -124 42 -70 76 -122
76 -115 0 7 -36 73 -80 148 l-80 135 0 321 c0 176 2 318 4 316 3 -2 25 -56 49
-119z m1183 -363 l-101 -309 -145 -123 c-80 -68 -150 -124 -156 -124 -7 -1 -1
56 16 160 l26 160 224 265 c124 145 227 269 229 275 1 6 4 9 6 7 1 -2 -43
-142 -99 -311z m-899 -359 c47 -117 95 -241 108 -275 l24 -62 -44 -48 c-23
-26 -45 -46 -48 -43 -3 3 -48 78 -101 166 l-95 162 25 148 c27 162 32 180 40
171 4 -3 44 -102 91 -219z m-1199 7 l252 -138 75 -131 c41 -71 73 -131 72
-132 -1 -1 -52 15 -112 35 -155 54 -158 55 -151 43 3 -6 68 -31 144 -56 l137
-46 113 -197 c62 -107 110 -198 108 -201 -3 -2 -21 -5 -39 -6 -32 -1 -45 12
-263 264 -393 455 -615 717 -599 708 6 -2 124 -67 263 -143z m1878 -314 c-51
-161 -95 -289 -97 -283 -3 7 -29 6 -79 -3 -41 -7 -77 -12 -78 -10 -2 2 10 85
26 184 29 177 30 181 63 208 204 172 254 213 257 205 1 -4 -40 -140 -92 -301z
m-1291 -9 l250 -137 3 -47 c2 -27 2 -48 0 -48 -2 0 -92 31 -200 69 -109 37
-198 64 -198 60 0 -7 65 -32 270 -102 l125 -42 6 -105 5 -105 2 97 c1 53 5 99
10 101 4 3 24 -2 45 -10 27 -11 36 -20 33 -32 -3 -9 -8 -32 -11 -51 -4 -19
-21 -52 -39 -72 -30 -34 -39 -38 -129 -54 -53 -9 -99 -15 -101 -13 -2 2 -79
135 -171 294 -92 160 -178 309 -192 333 l-25 43 34 -21 c18 -12 146 -83 283
-158z m555 23 l92 -155 -59 -70 -58 -69 -65 35 c-36 20 -68 39 -72 43 -9 8 53
371 63 371 4 0 48 -70 99 -155z m1909 -99 c-2 -2 -118 -74 -256 -160 l-253
-156 -206 0 c-121 0 -203 4 -200 9 4 5 58 53 122 107 l116 98 336 56 c309 52
353 58 341 46z m-729 -121 c0 -2 -50 -47 -111 -100 l-112 -95 -167 0 -168 0
17 57 c11 36 23 59 33 61 94 18 468 81 486 81 12 1 22 -1 22 -4z m-545 -102
c-3 -10 -11 -36 -17 -58 l-11 -40 -74 3 -74 4 7 36 c3 20 9 40 13 44 6 7 100
25 140 27 18 1 22 -3 16 -16z m-179 -29 c-3 -9 -6 -27 -6 -40 0 -20 -5 -24
-31 -24 -17 0 -28 -4 -24 -10 3 -5 15 -10 26 -10 13 0 19 -7 20 -22 l0 -23 9
23 c8 20 16 22 80 22 66 0 71 -1 65 -19 -3 -11 -18 -56 -33 -101 l-28 -82 -19
43 c-11 23 -53 77 -93 118 -75 77 -98 108 -88 118 7 7 71 20 105 22 17 1 22
-3 17 -15z m463 -91 c0 -5 -62 -60 -138 -124 l-138 -116 -39 23 c-21 13 -42
25 -46 26 -5 2 7 47 24 101 l32 97 153 0 c84 0 153 -3 152 -7z m421 -7 c-22
-20 -519 -326 -530 -326 -8 0 -134 73 -148 85 -2 1 64 59 145 129 l148 126
200 0 c168 0 197 -2 185 -14z m-1067 -46 c15 -12 36 -34 48 -51 20 -29 20 -31
4 -49 -15 -16 -15 -22 -5 -35 7 -8 9 -22 6 -31 -5 -13 -15 -8 -54 28 -26 24
-48 48 -49 53 0 4 -8 12 -17 17 -19 11 -21 59 -4 76 18 18 42 15 71 -8z m-828
-80 c10 -11 16 -22 14 -24 -2 -2 -101 -42 -220 -89 l-215 -85 -115 40 c-63 21
-118 43 -122 47 -5 5 112 32 260 60 147 29 286 56 308 60 62 13 71 13 90 -9z
m102 -120 l68 -81 28 31 c15 17 27 28 27 25 0 -9 -212 -265 -219 -265 -11 0
-581 89 -614 96 -39 8 -29 15 87 62 l99 41 116 -44 c64 -24 163 -62 220 -84
58 -23 109 -41 115 -41 27 0 -26 24 -212 95 -111 43 -200 81 -196 84 8 8 386
159 401 160 6 1 42 -35 80 -79z m1058 16 c16 -12 18 -17 8 -27 -22 -22 -14
-33 8 -13 20 18 21 18 85 -16 88 -47 92 -53 49 -80 l-35 -22 -78 66 c-95 78
-106 91 -98 111 6 17 20 12 61 -19z m-1747 -52 c73 -26 129 -50 125 -54 -4 -4
-57 -26 -116 -50 l-108 -43 -197 32 c-305 49 -324 53 -317 60 4 3 111 27 238
52 128 26 234 47 237 48 3 1 65 -20 138 -45z m1842 -113 c0 -3 -26 -22 -57
-40 -32 -19 -69 -41 -82 -50 l-24 -15 7 39 c3 22 9 63 12 90 10 78 26 83 90
28 30 -25 54 -48 54 -52z m-880 27 c11 -12 20 -29 20 -37 0 -14 2 -14 10 -1 8
11 9 8 4 -12 -6 -28 6 -60 39 -95 16 -19 18 -25 7 -38 -14 -17 -40 -20 -40 -5
0 6 6 13 14 16 12 5 12 10 -2 34 -15 26 -18 27 -38 13 -30 -19 -61 -3 -80 42
-21 51 -18 84 9 95 32 13 34 12 57 -12z m1302 -160 c70 -40 128 -76 128 -80 0
-5 -54 -8 -120 -8 -84 0 -120 -3 -120 -12 0 -8 38 -9 141 -5 l140 6 272 -161
c150 -88 283 -167 297 -175 21 -12 22 -14 4 -10 -11 2 -140 21 -285 42 l-264
38 -50 41 c-97 79 -525 447 -525 451 0 2 16 15 36 29 l36 24 92 -54 c50 -30
148 -86 218 -126z m-1430 -45 c21 -33 26 -53 31 -154 5 -88 4 -119 -6 -126
-14 -12 -418 -155 -423 -150 -2 1 50 101 114 220 l117 218 45 -6 c25 -3 62 -8
84 -11 57 -9 37 10 -39 37 -36 12 -64 25 -63 28 2 3 18 35 37 71 l33 64 23
-76 c12 -42 33 -94 47 -115z m1148 65 l120 -103 -53 -7 c-28 -3 -123 -6 -209
-7 l-156 -1 -13 37 c-10 33 -13 35 -24 19 -7 -9 -11 -26 -8 -36 4 -15 0 -20
-16 -20 -11 0 -21 -5 -21 -11 0 -5 10 -9 22 -7 20 3 24 -3 34 -62 7 -36 11
-66 10 -67 -5 -6 -186 21 -186 28 0 4 22 26 50 49 27 23 67 69 89 103 34 52
56 72 138 124 54 34 99 62 101 62 1 1 56 -45 122 -101z m286 -245 c103 -89
132 -119 117 -121 -17 -3 -561 70 -619 83 -16 4 -28 23 -47 72 -14 38 -23 71
-20 76 2 4 100 7 218 7 l213 0 138 -117z m-1274 14 c15 -9 32 -17 38 -17 40 0
104 -47 173 -127 l76 -87 -20 -36 c-132 -226 -195 -328 -200 -322 -5 6 -99
464 -99 483 0 4 28 17 61 29 55 21 60 25 44 36 -15 11 -24 9 -62 -13 -24 -14
-45 -24 -47 -22 -1 2 -10 32 -18 67 l-15 62 21 -18 c12 -10 33 -26 48 -35z
m571 -38 c70 -9 101 -17 106 -28 11 -21 64 -337 59 -352 -3 -8 -267 198 -361
281 -10 9 24 79 49 104 9 9 24 15 33 12 9 -3 60 -10 114 -17z m-181 -9 c-12
-11 -25 -32 -28 -46 l-6 -25 -35 27 c-19 14 -37 24 -39 21 -3 -3 11 -17 30
-32 l35 -27 -22 -39 c-12 -21 -25 -39 -29 -39 -7 0 -129 133 -125 136 1 1 41
4 90 8 48 3 100 12 115 20 37 20 40 20 14 -4z m444 -270 c51 -140 91 -256 89
-258 -2 -2 -37 22 -77 54 -40 31 -75 59 -77 61 -4 3 -71 377 -71 396 0 5 10 7
21 5 18 -3 36 -42 115 -258z m-831 -40 c26 -129 48 -244 48 -255 2 -21 -133
-259 -141 -250 -3 2 -8 163 -13 357 l-8 353 27 22 c15 12 30 19 33 15 4 -4 28
-113 54 -242z m-156 206 c-11 -11 -491 -296 -499 -296 -4 0 11 35 34 77 l41
78 200 72 c177 63 238 82 224 69z m693 -137 c95 -78 181 -147 191 -154 13 -9
24 -49 42 -156 27 -158 29 -183 16 -175 -7 5 -364 409 -449 508 -12 15 -12 23
3 67 9 28 18 51 21 51 2 0 81 -64 176 -141z m-232 36 c0 -5 -167 -495 -185
-544 -9 -23 -16 -7 -35 81 l-18 83 112 192 c96 167 126 211 126 188z m-910
-58 c0 -2 -19 -39 -42 -83 l-43 -79 -223 -134 c-122 -73 -224 -132 -226 -130
-2 2 58 80 133 173 l138 169 119 43 c110 39 144 49 144 41z m1516 -285 c27
-23 47 -68 128 -296 53 -148 95 -270 93 -273 -5 -4 -262 286 -294 332 -15 21
-27 71 -43 170 -12 77 -24 151 -27 164 -6 22 0 20 53 -22 32 -26 73 -60 90
-75z m-831 -161 l18 -99 -83 -238 c-46 -132 -86 -243 -90 -247 -10 -11 -20
149 -20 305 l0 128 73 125 c39 68 75 125 78 125 3 0 14 -45 24 -99z m3429 -97
c-173 -435 -462 -864 -810 -1204 l-128 -125 135 140 c363 377 622 768 800
1207 23 59 44 106 46 104 2 -2 -17 -57 -43 -122z m-6252 -766 c213 -290 541
-613 828 -814 100 -71 277 -182 338 -213 23 -12 42 -24 42 -27 0 -8 -140 70
-250 139 -347 220 -676 524 -925 857 -43 58 -82 111 -88 118 -5 6 -7 12 -4 12
3 0 29 -33 59 -72z"/>
</g>
</svg>
